<svg width="32" height="32" viewBox="0 0 32 32" fill="none" xmlns="http://www.w3.org/2000/svg">
<path d="M8.89427 6.61024C9.51561 5.39846 11.8525 5.28278 12.4144 6.61024L17.017 19.9554C17.0843 20.1244 17.2462 20.1266 17.3047 19.9554L21.8768 6.61024C22.1464 5.86153 22.6443 5.28183 23.9903 5.28443L30.7271 5.28442C32.1051 5.30448 32.0568 7.46226 30.7271 7.50778L25.1042 7.61883C24.5462 7.61127 23.9333 7.8951 23.7537 8.44878L21.7736 14.2997C21.6518 14.6843 21.9491 14.7742 22.3106 14.7774H27.6747C29.0756 14.7774 29.0756 16.7102 27.6747 16.7102L21.7826 16.7263C21.2109 16.7192 21.0228 16.8475 20.9224 17.1362L18.9191 23.1202C18.6907 23.8089 19.1102 24.5186 19.7192 24.5045H27.9507C29.14 24.5092 29.181 26.6616 27.9507 26.6487L17.4251 26.7155C16.3785 26.6838 16.2158 26.2818 15.9451 25.6046L10.8616 9.55988C10.792 9.35408 10.4777 9.34492 10.3997 9.55988L6.63034 17.5818C6.45245 17.9237 6.57754 18.0665 6.95764 18.0566H11.6952C12.0085 18.0541 12.2587 18.2214 12.4144 18.6609L12.8459 19.9554C12.9245 20.1938 12.7869 20.2544 12.4896 20.2584H6.63034C6.04391 20.2665 5.57388 20.5286 5.23997 21.0736L2.48803 26.1341C2.05287 27.1155 -0.176084 26.2356 0.332417 25.1683L8.89427 6.61024Z" fill="url(#paint0_linear_10_12)"/>
<defs>
<linearGradient id="paint0_linear_10_12" x1="0.280926" y1="26.4992" x2="34.6173" y2="0.00286902" gradientUnits="userSpaceOnUse">
<stop offset="0.00877028" stop-color="#8F368A"/>
<stop offset="1" stop-color="#6663F1"/>
</linearGradient>
</defs>
</svg>
