<svg width="32" height="20" viewBox="0 0 32 20" fill="none" xmlns="http://www.w3.org/2000/svg">
<path d="M0.229202 18.5762L9.22144 0.9512C9.72334 -0.10215 11.2918 -0.100892 11.7103 0.89066L17.0254 13.699C17.1527 14.0236 17.1826 14.0181 17.2977 13.7009L22.6714 1.50507C23.0177 0.551284 23.8658 0.14165 24.6992 0.158224L30.7641 0.237255C32.2045 0.265899 32.207 2.15631 30.5737 2.15313L26.0249 2.14242C25.1674 2.14075 24.6886 2.54636 24.5001 3.10014L19.0732 16.3585C18.7779 17.226 19.2537 17.5321 19.6162 17.5316H28.1643C29.4404 17.5299 29.4769 19.8441 28.1643 19.8441H17.3245C16.8674 19.8441 16.3692 19.9204 16.0881 19.1303L10.6166 4.1407C10.4601 3.63206 10.1309 3.61252 9.90263 4.1407L6.84133 10.5719C6.58308 11.1121 6.93469 11.1074 7.22148 11.1074H9.61108H11.3179C11.5407 11.1074 11.6374 11.2303 11.6871 11.3717L12.146 12.7259C12.2263 12.9544 12.1343 13.0496 11.9026 13.0496H6.71586C5.75226 13.0728 5.33551 13.4718 5.09393 13.986L2.27519 19.5172C1.90433 20.3065 -0.174842 19.4302 0.229202 18.5762Z" fill="url(#paint0_linear_11_20)"/>
<path d="M23.861 8.88169L28.7386 8.88058C29.8701 8.88039 29.7096 10.8707 28.7501 10.8597L23.2882 10.7902C22.9906 10.7868 23.0804 10.4707 23.1288 10.3341L23.5441 9.16273C23.5876 9.03985 23.6961 8.88173 23.861 8.88169Z" fill="url(#paint1_linear_11_20)"/>
<defs>
<linearGradient id="paint0_linear_11_20" x1="0.177369" y1="19.8461" x2="33.1497" y2="-2.61818" gradientUnits="userSpaceOnUse">
<stop stop-color="#8F368A"/>
<stop offset="1" stop-color="#6663F1"/>
</linearGradient>
<linearGradient id="paint1_linear_11_20" x1="0.177369" y1="19.8461" x2="33.1497" y2="-2.61818" gradientUnits="userSpaceOnUse">
<stop stop-color="#8F368A"/>
<stop offset="1" stop-color="#6663F1"/>
</linearGradient>
</defs>
</svg>
